<svg width="10" height="5" viewBox="0 0 10 5" fill="none" xmlns="http://www.w3.org/2000/svg">
<path d="M5.03192 4.99863C5.13317 4.99237 5.22934 4.95236 5.30524 4.88509L9.8481 0.79607C9.93841 0.715255 9.99283 0.60172 9.99933 0.480733C10.0059 0.359669 9.96392 0.24099 9.88279 0.150893C9.80175 0.060809 9.68807 0.00677341 9.56703 0.000593223C9.44598 -0.00558676 9.32747 0.036721 9.23763 0.118092L5 3.9337L0.762371 0.118092C0.672534 0.036723 0.554029 -0.00558696 0.432974 0.000593223C0.311923 0.00677321 0.198246 0.060809 0.117205 0.150893C0.0360826 0.240977 -0.00590436 0.359665 0.00067061 0.480733C0.00716669 0.601716 0.0615915 0.715243 0.151903 0.79607L4.69475 4.88509C4.78705 4.96718 4.90882 5.00822 5.03192 4.99863Z" fill="#003068"/>
</svg>
