<svg width="16" height="16" viewBox="0 0 16 16" fill="none" xmlns="http://www.w3.org/2000/svg">
<path d="M0.291733 14.2187C-0.0972443 14.6263 -0.0972443 15.2869 0.291733 15.6944C0.68071 16.1019 1.31138 16.1019 1.70036 15.6944L0.291733 14.2187ZM8.34065 8.73783C8.72964 8.33031 8.72964 7.66972 8.34065 7.2622C7.95166 6.85469 7.32109 6.85469 6.9321 7.2622L8.34065 8.73783ZM6.9321 7.2622C6.54311 7.66972 6.54311 8.33031 6.9321 8.73783C7.32109 9.14534 7.95166 9.14534 8.34065 8.73783L6.9321 7.2622ZM14.981 1.78133C15.37 1.37383 15.37 0.713125 14.981 0.305625C14.592 -0.101875 13.9614 -0.101875 13.5724 0.305625L14.981 1.78133ZM8.34065 7.2622C7.95166 6.85469 7.32109 6.85469 6.9321 7.2622C6.54311 7.66972 6.54311 8.33031 6.9321 8.73783L8.34065 7.2622ZM13.5724 15.6944C13.9614 16.1019 14.592 16.1019 14.981 15.6944C15.37 15.2869 15.37 14.6263 14.981 14.2187L13.5724 15.6944ZM6.9321 8.73783C7.32109 9.14534 7.95166 9.14534 8.34065 8.73783C8.72964 8.33031 8.72964 7.66972 8.34065 7.2622L6.9321 8.73783ZM1.70036 0.305625C1.31138 -0.101875 0.68071 -0.101875 0.291733 0.305625C-0.0972443 0.713125 -0.0972443 1.37383 0.291733 1.78133L1.70036 0.305625ZM1.70036 15.6944L8.34065 8.73783L6.9321 7.2622L0.291733 14.2187L1.70036 15.6944ZM8.34065 8.73783L14.981 1.78133L13.5724 0.305625L6.9321 7.2622L8.34065 8.73783ZM6.9321 8.73783L13.5724 15.6944L14.981 14.2187L8.34065 7.2622L6.9321 8.73783ZM8.34065 7.2622L1.70036 0.305625L0.291733 1.78133L6.9321 8.73783L8.34065 7.2622Z" fill="#003675"/>
</svg>
