<svg width="20" height="20" viewBox="0 0 20 20" fill="none" xmlns="http://www.w3.org/2000/svg">
<path d="M10 1C8.21997 1 6.47991 1.52784 4.99987 2.51677C3.51983 3.50571 2.36628 4.91131 1.68509 6.55585C1.0039 8.20038 0.82567 10.01 1.17294 11.7558C1.5202 13.5016 2.37737 15.1053 3.63604 16.364C4.89471 17.6226 6.49836 18.4798 8.24419 18.8271C9.99002 19.1743 11.7996 18.9961 13.4442 18.3149C15.0887 17.6337 16.4943 16.4802 17.4832 15.0001C18.4722 13.5201 19 11.78 19 10C18.9974 7.61383 18.0484 5.32613 16.3611 3.63886C14.6739 1.95158 12.3862 1.00255 10 1ZM13.6688 13.6688C13.5482 13.7893 13.3847 13.857 13.2143 13.857C13.0438 13.857 12.8803 13.7893 12.7598 13.6688L9.5455 10.4545C9.42494 10.334 9.35718 10.1705 9.35715 10V5.5C9.35715 5.3295 9.42488 5.16599 9.54543 5.04543C9.66599 4.92487 9.82951 4.85714 10 4.85714C10.1705 4.85714 10.334 4.92487 10.4546 5.04543C10.5751 5.16599 10.6429 5.3295 10.6429 5.5V9.73386L13.6688 12.7598C13.7893 12.8803 13.857 13.0438 13.857 13.2143C13.857 13.3847 13.7893 13.5482 13.6688 13.6688Z" fill="#1783FE"/>
</svg>
