<svg width="11" height="13" viewBox="0 0 11 13" fill="none" xmlns="http://www.w3.org/2000/svg">
<path d="M5.49917 0.5C2.8592 0.5 0.699219 2.53592 0.699219 5.04166C0.699219 6.03349 1.04591 6.97314 1.65921 7.75614L5.28592 12.4023C5.36592 12.5067 5.55261 12.5328 5.65922 12.4544L5.71252 12.4023L9.33923 7.75614C9.95252 6.97309 10.2992 6.03344 10.2992 5.04166C10.2992 2.53592 8.13924 0.5 5.49926 0.5H5.49917ZM5.12587 6.81648C4.11258 6.6077 3.44589 5.66805 3.65919 4.67613C3.87249 3.68431 4.83248 3.03174 5.84587 3.24052C6.59256 3.39713 7.17916 3.94526 7.31255 4.67613C7.49924 5.66796 6.83255 6.63374 5.84587 6.81648C5.60587 6.86866 5.36587 6.86866 5.12587 6.81648Z" fill="#1783FE"/>
</svg>
