<svg width="267" height="62" viewBox="0 0 267 62" fill="none" xmlns="http://www.w3.org/2000/svg">
<path d="M58.9513 18.7852H21.6959H4.04858C1.88384 18.7852 0.126953 20.542 0.126953 22.7068C0.126953 24.8715 1.88384 26.6284 4.04858 26.6284C4.04858 38.1345 11.135 47.9699 21.1704 52.0523C17.7233 53.4955 15.488 55.6092 15.488 58.0014H47.5119C47.5119 55.6092 45.2805 53.4955 41.8295 52.0523C51.8649 47.9699 58.9513 38.1345 58.9513 26.6284C61.12 26.6284 62.8729 24.8715 62.8729 22.7068C62.8729 20.542 61.12 18.7852 58.9513 18.7852ZM43.2648 42.3149H35.4216V50.1582H27.5783V42.3149H19.7351V34.4717H27.5783V26.6284H35.4216V34.4717H43.2648V42.3149Z" fill="#1E86FD"/>
<path d="M18.3196 15.9571L7.26844 0L0.821289 4.46281L8.77827 15.9571H18.3196Z" fill="#FF8700"/>
<path d="M84.3303 30.395V46H80.7833V35.4649L79.3664 46H76.8507L75.3567 35.7059V46H71.8096V30.395H77.0627C77.217 31.3331 77.3808 32.4384 77.5543 33.7107L78.1134 37.6818L79.0387 30.395H84.3303ZM94.663 39.8312H89.6219V42.5975C89.6219 43.1759 89.6637 43.5486 89.7472 43.7156C89.8308 43.8827 89.9914 43.9662 90.2292 43.9662C90.5248 43.9662 90.7208 43.857 90.8171 43.6385C90.92 43.4136 90.9714 42.9831 90.9714 42.3469V40.6602H94.663V41.6048C94.663 42.3951 94.6116 43.0024 94.5088 43.4265C94.4124 43.8506 94.181 44.3036 93.8148 44.7855C93.4485 45.2675 92.9826 45.6305 92.4172 45.8747C91.8581 46.1125 91.1545 46.2313 90.3063 46.2313C89.4838 46.2313 88.7577 46.1125 88.1279 45.8747C87.4982 45.6369 87.0066 45.3124 86.6532 44.9012C86.3062 44.4835 86.0653 44.0273 85.9303 43.5325C85.7954 43.0313 85.7279 42.3052 85.7279 41.3542V37.624C85.7279 36.5059 85.8789 35.6256 86.1809 34.983C86.4829 34.334 86.9777 33.8392 87.6653 33.4986C88.3528 33.1516 89.1432 32.9781 90.0364 32.9781C91.1288 32.9781 92.0284 33.187 92.7352 33.6046C93.4485 34.0159 93.9465 34.5653 94.2292 35.2529C94.5184 35.934 94.663 36.8947 94.663 38.1348V39.8312ZM90.7593 37.7493V36.8143C90.7593 36.1525 90.724 35.7252 90.6533 35.5324C90.5826 35.3396 90.438 35.2432 90.2195 35.2432C89.9497 35.2432 89.7826 35.3268 89.7183 35.4938C89.6541 35.6545 89.6219 36.0946 89.6219 36.8143V37.7493H90.7593ZM107.27 48.4675H104.668V46H98.1136V48.4675H95.5112V42.9445H96.3401C96.8349 42.1799 97.2397 40.9943 97.5546 39.3879C97.8759 37.775 98.0365 35.873 98.0365 33.6818V33.2095H106.441V42.9253H107.27V48.4675ZM102.576 42.9253V36.0914H101.564V36.2264C101.564 38.6039 101.179 40.8369 100.408 42.9253H102.576ZM108.36 30.395H112.408C113.687 30.395 114.654 30.4946 115.309 30.6938C115.971 30.893 116.504 31.2978 116.909 31.9082C117.314 32.5123 117.516 33.489 117.516 34.8384C117.516 35.7509 117.372 36.387 117.083 36.7469C116.8 37.1067 116.238 37.383 115.396 37.5758C116.334 37.7878 116.97 38.1413 117.304 38.636C117.638 39.1244 117.805 39.8762 117.805 40.8915V42.3373C117.805 43.3911 117.683 44.1719 117.439 44.6795C117.201 45.1871 116.819 45.5341 116.292 45.7205C115.765 45.9068 114.686 46 113.054 46H108.36V30.395ZM112.417 33.0649V36.5348C112.591 36.5284 112.726 36.5252 112.822 36.5252C113.221 36.5252 113.474 36.4288 113.584 36.236C113.693 36.0368 113.748 35.4746 113.748 34.5492C113.748 34.0609 113.703 33.7203 113.613 33.5275C113.523 33.3283 113.404 33.203 113.256 33.1516C113.115 33.1002 112.835 33.0713 112.417 33.0649ZM112.417 38.9638V43.3301C112.989 43.3108 113.352 43.2208 113.507 43.0602C113.667 42.8996 113.748 42.5044 113.748 41.8746V40.4192C113.748 39.7509 113.677 39.3461 113.536 39.2047C113.394 39.0634 113.021 38.983 112.417 38.9638ZM122.634 38.1637H118.981V37.3059C118.981 36.3163 119.094 35.5549 119.319 35.0215C119.55 34.4818 120.01 34.0063 120.697 33.595C121.385 33.1838 122.278 32.9781 123.377 32.9781C124.694 32.9781 125.687 33.2127 126.355 33.6818C127.023 34.1444 127.425 34.7163 127.56 35.3974C127.695 36.0722 127.762 37.4665 127.762 39.5806V46H123.974V44.8626C123.736 45.3189 123.428 45.6626 123.049 45.894C122.676 46.1189 122.23 46.2313 121.709 46.2313C121.028 46.2313 120.401 46.0418 119.83 45.6626C119.264 45.2771 118.981 44.4385 118.981 43.1469V42.0963C118.981 41.1389 119.132 40.4867 119.434 40.1397C119.736 39.7927 120.485 39.3879 121.68 38.9252C122.959 38.424 123.643 38.0866 123.733 37.9131C123.823 37.7396 123.868 37.3862 123.868 36.8529C123.868 36.1846 123.817 35.7509 123.714 35.5517C123.618 35.346 123.454 35.2432 123.222 35.2432C122.959 35.2432 122.795 35.33 122.731 35.5035C122.667 35.6705 122.634 36.1107 122.634 36.824V38.1637ZM123.868 39.918C123.245 40.3742 122.882 40.7566 122.779 41.065C122.683 41.3734 122.634 41.8168 122.634 42.3951C122.634 43.057 122.676 43.4843 122.76 43.6771C122.85 43.8699 123.023 43.9662 123.28 43.9662C123.524 43.9662 123.682 43.8923 123.753 43.7445C123.83 43.5903 123.868 43.1919 123.868 42.5494V39.918ZM138.75 46H135.358V39.0891L132.649 46H129.102V33.2095H132.495V40.0626L135.155 33.2095H138.75V46ZM135.001 29.4407H136.639C136.601 30.3146 136.344 31.0183 135.868 31.5516C135.399 32.0849 134.744 32.3516 133.902 32.3516C133.054 32.3516 132.395 32.0849 131.926 31.5516C131.463 31.0118 131.213 30.3082 131.174 29.4407H132.813C132.89 30.3211 133.253 30.7612 133.902 30.7612C134.558 30.7612 134.924 30.3211 135.001 29.4407Z" fill="#003675"/>
<path d="M151.692 30.0962L147.065 46.2988H144.116L148.771 30.0962H151.692Z" fill="#003675"/>
<path d="M171.412 38.3565C171.412 39.3782 171.364 40.114 171.268 40.5638C171.133 41.1871 170.847 41.7493 170.41 42.2506C169.729 43.0281 168.447 43.4168 166.564 43.4168H165.851V46H161.783V43.4168H161.157C159.268 43.4168 157.982 43.0281 157.301 42.2506C156.864 41.7493 156.578 41.1871 156.443 40.5638C156.347 40.114 156.299 39.3782 156.299 38.3565V38.0866C156.299 37.0649 156.347 36.3292 156.443 35.8794C156.578 35.2561 156.864 34.6938 157.301 34.1926C157.976 33.4344 159.261 33.0552 161.157 33.0552C161.298 33.0552 161.507 33.0456 161.783 33.0263V30.3853H165.851V33.0263C166.178 33.0456 166.416 33.0552 166.564 33.0552C168.46 33.0552 169.742 33.4344 170.41 34.1926C170.847 34.6938 171.133 35.2561 171.268 35.8794C171.364 36.3292 171.412 37.0649 171.412 38.0866V38.3565ZM167.354 39.2336V37.2192C167.354 36.6858 167.248 36.2585 167.036 35.9372C166.831 35.6159 166.574 35.4553 166.265 35.4553H165.851V40.9879H166.265C166.574 40.9879 166.831 40.8272 167.036 40.5059C167.248 40.1847 167.354 39.7606 167.354 39.2336ZM161.783 40.9879V35.4553H161.446C161.144 35.4553 160.887 35.6159 160.675 35.9372C160.469 36.2585 160.366 36.6858 160.366 37.2192V39.2336C160.366 39.7606 160.469 40.1847 160.675 40.5059C160.887 40.8272 161.144 40.9879 161.446 40.9879H161.783ZM178.342 46V35.889H176.964V42.3469C176.964 43.5229 176.829 44.3646 176.559 44.8723C176.289 45.3735 175.862 45.6883 175.277 45.8169C174.699 45.939 173.748 46 172.424 46H171.788V43.9084C172.283 43.902 172.624 43.8409 172.81 43.7253C172.996 43.6032 173.089 43.1823 173.089 42.4626V33.2095H182.208V46H178.342ZM192.319 37.7011V40.8337C192.319 41.9839 192.261 42.8289 192.145 43.3686C192.029 43.902 191.782 44.4032 191.403 44.8723C191.024 45.3349 190.535 45.6787 189.938 45.9036C189.347 46.1221 188.666 46.2313 187.894 46.2313C187.033 46.2313 186.304 46.1382 185.706 45.9518C185.109 45.759 184.643 45.4731 184.309 45.094C183.981 44.7084 183.747 44.2458 183.605 43.706C183.464 43.1598 183.393 42.3437 183.393 41.2578V37.9806C183.393 36.7918 183.522 35.8633 183.779 35.195C184.036 34.5267 184.498 33.9902 185.167 33.5854C185.835 33.1805 186.69 32.9781 187.731 32.9781C188.604 32.9781 189.353 33.1099 189.976 33.3733C190.606 33.6304 191.091 33.9677 191.432 34.3854C191.772 34.8031 192.004 35.2336 192.126 35.677C192.254 36.1203 192.319 36.7951 192.319 37.7011ZM188.425 36.7372C188.425 36.0818 188.389 35.6705 188.319 35.5035C188.248 35.33 188.097 35.2432 187.865 35.2432C187.634 35.2432 187.48 35.33 187.403 35.5035C187.326 35.6705 187.287 36.0818 187.287 36.7372V42.5108C187.287 43.1148 187.326 43.51 187.403 43.6964C187.48 43.8763 187.631 43.9662 187.856 43.9662C188.087 43.9662 188.238 43.8827 188.309 43.7156C188.386 43.5486 188.425 43.1887 188.425 42.6361V36.7372ZM197.572 33.2095L197.504 34.3372C197.851 33.881 198.234 33.5404 198.651 33.3155C199.069 33.0906 199.525 32.9781 200.02 32.9781C200.624 32.9781 201.144 33.142 201.581 33.4697C202.025 33.791 202.301 34.1637 202.41 34.5878C202.52 35.0119 202.574 35.7316 202.574 36.7469V42.1349C202.574 43.298 202.503 44.1269 202.362 44.6217C202.227 45.11 201.944 45.502 201.514 45.7976C201.09 46.0867 200.576 46.2313 199.972 46.2313C199.49 46.2313 199.043 46.1189 198.632 45.894C198.221 45.6691 197.845 45.3349 197.504 44.8916V47.8217H193.61V33.2095H197.572ZM198.68 36.93C198.68 36.1396 198.651 35.6609 198.593 35.4938C198.536 35.3268 198.375 35.2432 198.111 35.2432C197.854 35.2432 197.687 35.3396 197.61 35.5324C197.54 35.7252 197.504 36.191 197.504 36.93V42.2313C197.504 43.0024 197.543 43.4843 197.62 43.6771C197.697 43.8699 197.864 43.9662 198.121 43.9662C198.372 43.9662 198.526 43.8795 198.584 43.706C198.648 43.5261 198.68 43.0955 198.68 42.4144V36.93ZM207.345 38.1637H203.692V37.3059C203.692 36.3163 203.805 35.5549 204.03 35.0215C204.261 34.4818 204.72 34.0063 205.408 33.595C206.095 33.1838 206.989 32.9781 208.087 32.9781C209.405 32.9781 210.398 33.2127 211.066 33.6818C211.734 34.1444 212.136 34.7163 212.271 35.3974C212.406 36.0722 212.473 37.4665 212.473 39.5806V46H208.685V44.8626C208.447 45.3189 208.139 45.6626 207.76 45.894C207.387 46.1189 206.94 46.2313 206.42 46.2313C205.739 46.2313 205.112 46.0418 204.54 45.6626C203.975 45.2771 203.692 44.4385 203.692 43.1469V42.0963C203.692 41.1389 203.843 40.4867 204.145 40.1397C204.447 39.7927 205.196 39.3879 206.391 38.9252C207.67 38.424 208.354 38.0866 208.444 37.9131C208.534 37.7396 208.579 37.3862 208.579 36.8529C208.579 36.1846 208.528 35.7509 208.425 35.5517C208.328 35.346 208.165 35.2432 207.933 35.2432C207.67 35.2432 207.506 35.33 207.442 35.5035C207.377 35.6705 207.345 36.1107 207.345 36.824V38.1637ZM208.579 39.918C207.956 40.3742 207.593 40.7566 207.49 41.065C207.393 41.3734 207.345 41.8168 207.345 42.3951C207.345 43.057 207.387 43.4843 207.471 43.6771C207.561 43.8699 207.734 43.9662 207.991 43.9662C208.235 43.9662 208.393 43.8923 208.463 43.7445C208.54 43.5903 208.579 43.1919 208.579 42.5494V39.918ZM232.02 38.3565C232.02 39.3782 231.972 40.114 231.876 40.5638C231.741 41.1871 231.455 41.7493 231.018 42.2506C230.337 43.0281 229.055 43.4168 227.172 43.4168H226.459V46H222.391V43.4168H221.765C219.876 43.4168 218.59 43.0281 217.909 42.2506C217.472 41.7493 217.186 41.1871 217.051 40.5638C216.955 40.114 216.907 39.3782 216.907 38.3565V38.0866C216.907 37.0649 216.955 36.3292 217.051 35.8794C217.186 35.2561 217.472 34.6938 217.909 34.1926C218.584 33.4344 219.869 33.0552 221.765 33.0552C221.906 33.0552 222.115 33.0456 222.391 33.0263V30.3853H226.459V33.0263C226.787 33.0456 227.024 33.0552 227.172 33.0552C229.068 33.0552 230.35 33.4344 231.018 34.1926C231.455 34.6938 231.741 35.2561 231.876 35.8794C231.972 36.3292 232.02 37.0649 232.02 38.0866V38.3565ZM227.962 39.2336V37.2192C227.962 36.6858 227.856 36.2585 227.644 35.9372C227.439 35.6159 227.182 35.4553 226.873 35.4553H226.459V40.9879H226.873C227.182 40.9879 227.439 40.8272 227.644 40.5059C227.856 40.1847 227.962 39.7606 227.962 39.2336ZM222.391 40.9879V35.4553H222.054C221.752 35.4553 221.495 35.6159 221.283 35.9372C221.077 36.2585 220.974 36.6858 220.974 37.2192V39.2336C220.974 39.7606 221.077 40.1847 221.283 40.5059C221.495 40.8272 221.752 40.9879 222.054 40.9879H222.391ZM236.512 38.1637H232.859V37.3059C232.859 36.3163 232.971 35.5549 233.196 35.0215C233.428 34.4818 233.887 34.0063 234.575 33.595C235.262 33.1838 236.155 32.9781 237.254 32.9781C238.571 32.9781 239.564 33.2127 240.232 33.6818C240.901 34.1444 241.302 34.7163 241.437 35.3974C241.572 36.0722 241.64 37.4665 241.64 39.5806V46H237.852V44.8626C237.614 45.3189 237.306 45.6626 236.926 45.894C236.554 46.1189 236.107 46.2313 235.587 46.2313C234.905 46.2313 234.279 46.0418 233.707 45.6626C233.142 45.2771 232.859 44.4385 232.859 43.1469V42.0963C232.859 41.1389 233.01 40.4867 233.312 40.1397C233.614 39.7927 234.363 39.3879 235.558 38.9252C236.836 38.424 237.521 38.0866 237.611 37.9131C237.701 37.7396 237.746 37.3862 237.746 36.8529C237.746 36.1846 237.694 35.7509 237.591 35.5517C237.495 35.346 237.331 35.2432 237.1 35.2432C236.836 35.2432 236.673 35.33 236.608 35.5035C236.544 35.6705 236.512 36.1107 236.512 36.824V38.1637ZM237.746 39.918C237.122 40.3742 236.759 40.7566 236.657 41.065C236.56 41.3734 236.512 41.8168 236.512 42.3951C236.512 43.057 236.554 43.4843 236.637 43.6771C236.727 43.8699 236.901 43.9662 237.158 43.9662C237.402 43.9662 237.559 43.8923 237.63 43.7445C237.707 43.5903 237.746 43.1919 237.746 42.5494V39.918ZM246.941 33.2095L246.874 34.3372C247.221 33.881 247.603 33.5404 248.021 33.3155C248.438 33.0906 248.894 32.9781 249.389 32.9781C249.993 32.9781 250.514 33.142 250.951 33.4697C251.394 33.791 251.67 34.1637 251.78 34.5878C251.889 35.0119 251.943 35.7316 251.943 36.7469V42.1349C251.943 43.298 251.873 44.1269 251.731 44.6217C251.596 45.11 251.314 45.502 250.883 45.7976C250.459 46.0867 249.945 46.2313 249.341 46.2313C248.859 46.2313 248.413 46.1189 248.001 45.894C247.59 45.6691 247.214 45.3349 246.874 44.8916V47.8217H242.98V33.2095H246.941ZM248.049 36.93C248.049 36.1396 248.021 35.6609 247.963 35.4938C247.905 35.3268 247.744 35.2432 247.481 35.2432C247.224 35.2432 247.057 35.3396 246.98 35.5324C246.909 35.7252 246.874 36.191 246.874 36.93V42.2313C246.874 43.0024 246.912 43.4843 246.989 43.6771C247.066 43.8699 247.233 43.9662 247.49 43.9662C247.741 43.9662 247.895 43.8795 247.953 43.706C248.017 43.5261 248.049 43.0955 248.049 42.4144V36.93ZM265.332 46H261.997V37.1806L260.377 46H258.247L256.57 37.1806V46H253.235V33.2095H258.064L259.307 40.2746L260.435 33.2095H265.332V46Z" fill="#003675"/>
<path d="M71.8632 25V19.5834H75.6397V20.2848H72.7372V25H71.8632ZM76.7113 27.3306V20.8351C76.7113 20.6336 76.7005 20.4286 76.6789 20.22C76.6645 20.0042 76.6465 19.792 76.625 19.5834H77.4666L77.5853 20.8674H77.4558C77.5709 20.443 77.8047 20.1085 78.1571 19.864C78.5096 19.6122 78.9304 19.4863 79.4196 19.4863C79.9087 19.4863 80.3295 19.5978 80.682 19.8208C81.0417 20.0438 81.3222 20.3639 81.5236 20.7811C81.725 21.1983 81.8257 21.7019 81.8257 22.2917C81.8257 22.8744 81.725 23.3743 81.5236 23.7915C81.3294 24.2087 81.0525 24.5324 80.6928 24.7626C80.3331 24.9856 79.9087 25.0971 79.4196 25.0971C78.9376 25.0971 78.5204 24.9748 78.1679 24.7302C77.8155 24.4857 77.5817 24.1512 77.4666 23.7268H77.5853V27.3306H76.7113ZM79.2469 24.385C79.7649 24.385 80.1749 24.2087 80.477 23.8563C80.7863 23.4966 80.941 22.9751 80.941 22.2917C80.941 21.6011 80.7863 21.0796 80.477 20.7272C80.1749 20.3675 79.7649 20.1877 79.2469 20.1877C78.7362 20.1877 78.3262 20.3675 78.0169 20.7272C77.7148 21.0796 77.5637 21.6011 77.5637 22.2917C77.5637 22.9751 77.7148 23.4966 78.0169 23.8563C78.3262 24.2087 78.7362 24.385 79.2469 24.385ZM83.018 27.4493L82.8129 26.7264C83.151 26.6473 83.4316 26.5538 83.6546 26.4459C83.8847 26.3452 84.0754 26.2085 84.2264 26.0358C84.3775 25.8632 84.507 25.6474 84.6149 25.3884L84.8954 24.7518L84.8738 25.1187L82.5108 19.5834H83.4603L85.4133 24.3418H85.1328L87.0642 19.5834H87.9814L85.4781 25.4532C85.3342 25.7985 85.176 26.0862 85.0033 26.3164C84.8307 26.5538 84.6436 26.7444 84.4422 26.8883C84.248 27.0393 84.0322 27.158 83.7948 27.2443C83.5575 27.3306 83.2985 27.399 83.018 27.4493ZM89.0282 25V19.5834H93.7218V25H92.8478V20.274H89.9021V25H89.0282ZM95.4453 25V19.5834H100.139V25H99.2649V20.274H96.3192V25H95.4453ZM103.966 25.0971C103.484 25.0971 103.064 24.9856 102.704 24.7626C102.344 24.5324 102.064 24.2087 101.862 23.7915C101.668 23.3743 101.571 22.8744 101.571 22.2917C101.571 21.7019 101.668 21.1983 101.862 20.7811C102.064 20.3639 102.344 20.0438 102.704 19.8208C103.064 19.5978 103.484 19.4863 103.966 19.4863C104.456 19.4863 104.876 19.6122 105.229 19.864C105.588 20.1085 105.826 20.443 105.941 20.8674H105.811L105.93 19.5834H106.772C106.75 19.792 106.729 20.0042 106.707 20.22C106.693 20.4286 106.685 20.6336 106.685 20.8351V25H105.811V23.7268H105.93C105.815 24.1512 105.578 24.4857 105.218 24.7302C104.858 24.9748 104.441 25.0971 103.966 25.0971ZM104.139 24.385C104.657 24.385 105.067 24.2087 105.369 23.8563C105.671 23.4966 105.822 22.9751 105.822 22.2917C105.822 21.6011 105.671 21.0796 105.369 20.7272C105.067 20.3675 104.657 20.1877 104.139 20.1877C103.628 20.1877 103.218 20.3675 102.909 20.7272C102.607 21.0796 102.456 21.6011 102.456 22.2917C102.456 22.9751 102.607 23.4966 102.909 23.8563C103.218 24.2087 103.628 24.385 104.139 24.385ZM111.261 25V19.5834H112.135V21.8601H113.16L114.952 19.5834H115.912L113.862 22.2054L113.624 21.9356C113.833 21.9572 114.013 22.0076 114.164 22.0867C114.315 22.1658 114.459 22.2845 114.596 22.4428C114.739 22.601 114.894 22.8204 115.06 23.101L116.182 25H115.243L114.25 23.3168C114.128 23.1082 114.009 22.9499 113.894 22.842C113.786 22.7341 113.66 22.6586 113.517 22.6154C113.38 22.5722 113.207 22.5507 112.999 22.5507H112.135V25H111.261ZM119.333 25.0971C118.815 25.0971 118.362 24.9856 117.974 24.7626C117.593 24.5324 117.298 24.2087 117.089 23.7915C116.88 23.3671 116.776 22.8672 116.776 22.2917C116.776 21.709 116.88 21.2091 117.089 20.7919C117.298 20.3747 117.593 20.0546 117.974 19.8316C118.362 19.6014 118.815 19.4863 119.333 19.4863C119.858 19.4863 120.312 19.6014 120.693 19.8316C121.081 20.0546 121.38 20.3747 121.588 20.7919C121.804 21.2091 121.912 21.709 121.912 22.2917C121.912 22.8672 121.804 23.3671 121.588 23.7915C121.38 24.2087 121.081 24.5324 120.693 24.7626C120.312 24.9856 119.858 25.0971 119.333 25.0971ZM119.333 24.385C119.851 24.385 120.261 24.2087 120.563 23.8563C120.865 23.4966 121.017 22.9751 121.017 22.2917C121.017 21.6011 120.862 21.0796 120.553 20.7272C120.25 20.3675 119.844 20.1877 119.333 20.1877C118.823 20.1877 118.416 20.3675 118.114 20.7272C117.812 21.0796 117.661 21.6011 117.661 22.2917C117.661 22.9751 117.812 23.4966 118.114 23.8563C118.416 24.2087 118.823 24.385 119.333 24.385ZM123.337 25V19.5834H124.071L126.099 23.2196L128.139 19.5834H128.872V25H128.095V20.5545H128.322L126.326 24.126H125.883L123.876 20.5437H124.114V25H123.337ZM130.597 25V19.5834H135.291V25H134.417V20.274H131.471V25H130.597ZM139.118 25.0971C138.636 25.0971 138.215 24.9856 137.856 24.7626C137.496 24.5324 137.216 24.2087 137.014 23.7915C136.82 23.3743 136.723 22.8744 136.723 22.2917C136.723 21.7019 136.82 21.1983 137.014 20.7811C137.216 20.3639 137.496 20.0438 137.856 19.8208C138.215 19.5978 138.636 19.4863 139.118 19.4863C139.607 19.4863 140.028 19.6122 140.381 19.864C140.74 20.1085 140.978 20.443 141.093 20.8674H140.963L141.082 19.5834H141.924C141.902 19.792 141.88 20.0042 141.859 20.22C141.844 20.4286 141.837 20.6336 141.837 20.8351V25H140.963V23.7268H141.082C140.967 24.1512 140.73 24.4857 140.37 24.7302C140.01 24.9748 139.593 25.0971 139.118 25.0971ZM139.291 24.385C139.809 24.385 140.219 24.2087 140.521 23.8563C140.823 23.4966 140.974 22.9751 140.974 22.2917C140.974 21.6011 140.823 21.0796 140.521 20.7272C140.219 20.3675 139.809 20.1877 139.291 20.1877C138.78 20.1877 138.37 20.3675 138.061 20.7272C137.759 21.0796 137.608 21.6011 137.608 22.2917C137.608 22.9751 137.759 23.4966 138.061 23.8563C138.37 24.2087 138.78 24.385 139.291 24.385ZM143.6 25V19.5834H144.474V21.8493H147.452V19.5834H148.326V25H147.452V22.5507H144.474V25H143.6ZM150.049 25V19.5834H150.847V24.1907H150.556L154.008 19.5834H154.742V25H153.955V20.3819H154.246L150.793 25H150.049ZM156.466 25V19.5834H157.264V24.1907H156.973L160.426 19.5834H161.159V25H160.372V20.3819H160.663L157.21 25H156.466ZM158.807 19.0763C158.512 19.0763 158.239 19.0259 157.987 18.9252C157.735 18.8245 157.516 18.6735 157.329 18.472C157.142 18.2634 157.002 18.0081 156.908 17.706L157.426 17.5117C157.555 17.857 157.732 18.1124 157.955 18.2778C158.185 18.4433 158.473 18.526 158.818 18.526C159.163 18.526 159.447 18.4505 159.67 18.2994C159.893 18.1483 160.087 17.8894 160.253 17.5225L160.749 17.706C160.562 18.1951 160.3 18.5476 159.962 18.7634C159.631 18.972 159.246 19.0763 158.807 19.0763Z" fill="#003675"/>
<path d="M71.88 58V50.95H74.7C75.4467 50.95 76.0233 51.11 76.43 51.43C76.8367 51.75 77.04 52.2033 77.04 52.79C77.04 53.23 76.9067 53.5967 76.64 53.89C76.38 54.1833 76.0167 54.3767 75.55 54.47V54.33C76.07 54.39 76.4767 54.57 76.77 54.87C77.07 55.1633 77.22 55.56 77.22 56.06C77.22 56.6867 77.01 57.1667 76.59 57.5C76.1767 57.8333 75.59 58 74.83 58H71.88ZM72.69 57.33H74.75C75.2567 57.33 75.6567 57.2333 75.95 57.04C76.25 56.84 76.4 56.51 76.4 56.05C76.4 55.5833 76.25 55.2533 75.95 55.06C75.6567 54.86 75.2567 54.76 74.75 54.76H72.69V57.33ZM72.69 54.1H74.58C75.1267 54.1 75.5367 53.9933 75.81 53.78C76.0833 53.5667 76.22 53.26 76.22 52.86C76.22 52.4467 76.0833 52.1367 75.81 51.93C75.5367 51.7167 75.1267 51.61 74.58 51.61H72.69V54.1ZM82.3769 58V50.95H85.2469C85.9869 50.95 86.5569 51.13 86.9569 51.49C87.3569 51.8433 87.5569 52.3367 87.5569 52.97C87.5569 53.59 87.3569 54.0833 86.9569 54.45C86.5569 54.81 85.9869 54.99 85.2469 54.99H83.2069V58H82.3769ZM83.2069 54.3H85.1669C85.6802 54.3 86.0669 54.1833 86.3269 53.95C86.5935 53.7167 86.7269 53.39 86.7269 52.97C86.7269 52.5433 86.5935 52.2133 86.3269 51.98C86.0669 51.7467 85.6802 51.63 85.1669 51.63H83.2069V54.3ZM92.5905 58V50.95H97.0905V51.63H93.4005V54.08H96.8705V54.77H93.4005V57.31H97.0905V58H92.5905ZM102.179 58V50.95H102.899L105.729 57.34H105.439L108.269 50.95H108.989V58H108.229V52.02H108.529L105.859 58H105.309L102.629 52.02H102.929V58H102.179ZM113.953 58L115.253 55.7C115.42 55.4067 115.603 55.1933 115.803 55.06C116.003 54.9267 116.24 54.86 116.513 54.86H116.763L116.713 54.99C115.947 54.99 115.35 54.8133 114.923 54.46C114.497 54.1067 114.283 53.6133 114.283 52.98C114.283 52.3267 114.49 51.8267 114.903 51.48C115.323 51.1267 115.92 50.95 116.693 50.95H119.573V58H118.753V55.02H117.483C117.143 55.02 116.873 55.07 116.673 55.17C116.473 55.2633 116.293 55.4567 116.133 55.75L114.873 58H113.953ZM116.813 54.37H118.753V51.62H116.813C115.667 51.62 115.093 52.0767 115.093 52.99C115.093 53.91 115.667 54.37 116.813 54.37ZM131.346 58V50.95H136.086V51.63H132.146V54.06H134.376C135.142 54.06 135.732 54.2233 136.146 54.55C136.566 54.8767 136.776 55.3667 136.776 56.02C136.776 56.6667 136.566 57.16 136.146 57.5C135.732 57.8333 135.142 58 134.376 58H131.346ZM132.146 57.33H134.306C134.866 57.33 135.279 57.2233 135.546 57.01C135.819 56.79 135.956 56.46 135.956 56.02C135.956 55.5867 135.819 55.2667 135.546 55.06C135.279 54.8467 134.866 54.74 134.306 54.74H132.146V57.33ZM141.813 58V50.95H142.633V54.06H144.533C145.3 54.06 145.89 54.2233 146.303 54.55C146.723 54.8767 146.933 55.3667 146.933 56.02C146.933 56.6667 146.723 57.16 146.303 57.5C145.89 57.8333 145.3 58 144.533 58H141.813ZM142.633 57.33H144.463C145.023 57.33 145.437 57.2233 145.703 57.01C145.977 56.79 146.113 56.46 146.113 56.02C146.113 55.5867 145.977 55.2633 145.703 55.05C145.437 54.8367 145.023 54.73 144.463 54.73H142.633V57.33ZM147.963 58V50.95H148.793V58H147.963ZM155.954 58V51.65H153.464V50.95H159.264V51.65H156.784V58H155.954ZM163.979 58V50.95H164.799V54.06H167.009C167.775 54.06 168.365 54.2233 168.779 54.55C169.199 54.8767 169.409 55.3667 169.409 56.02C169.409 56.6667 169.199 57.16 168.779 57.5C168.365 57.8333 167.775 58 167.009 58H163.979ZM164.799 57.33H166.939C167.499 57.33 167.912 57.2233 168.179 57.01C168.452 56.79 168.589 56.46 168.589 56.02C168.589 55.5867 168.452 55.2667 168.179 55.06C167.912 54.8467 167.499 54.74 166.939 54.74H164.799V57.33ZM183.074 58.09C182.46 58.09 181.914 58.01 181.434 57.85C180.96 57.6833 180.574 57.46 180.274 57.18L180.574 56.54C180.9 56.82 181.26 57.03 181.654 57.17C182.047 57.3033 182.507 57.37 183.034 57.37C183.714 57.37 184.21 57.2567 184.524 57.03C184.837 56.8033 184.994 56.47 184.994 56.03C184.994 55.5967 184.854 55.28 184.574 55.08C184.3 54.8733 183.884 54.77 183.324 54.77H181.544V54.09H183.184C183.717 54.09 184.124 53.9867 184.404 53.78C184.684 53.5667 184.824 53.26 184.824 52.86C184.824 52.46 184.674 52.1467 184.374 51.92C184.08 51.6933 183.637 51.58 183.044 51.58C182.604 51.58 182.19 51.6467 181.804 51.78C181.417 51.9067 181.064 52.1067 180.744 52.38L180.434 51.74C180.747 51.4533 181.137 51.2367 181.604 51.09C182.077 50.9367 182.574 50.86 183.094 50.86C183.934 50.86 184.567 51.0333 184.994 51.38C185.427 51.7267 185.644 52.1933 185.644 52.78C185.644 53.2133 185.51 53.58 185.244 53.88C184.984 54.1733 184.627 54.37 184.174 54.47V54.33C184.68 54.39 185.08 54.5733 185.374 54.88C185.667 55.18 185.814 55.5767 185.814 56.07C185.814 56.4833 185.714 56.8433 185.514 57.15C185.314 57.45 185.01 57.6833 184.604 57.85C184.197 58.01 183.687 58.09 183.074 58.09ZM190.297 59.57V57.32H191.017C191.377 56.88 191.643 56.29 191.817 55.55C191.99 54.8033 192.077 53.8767 192.077 52.77V50.95H196.887V57.32H197.917V59.57H197.177V58H191.037V59.57H190.297ZM191.867 57.32H196.057V51.63H192.847V52.83C192.847 53.9033 192.767 54.8033 192.607 55.53C192.447 56.25 192.2 56.8467 191.867 57.32ZM202.464 54.47C202.464 53.7233 202.591 53.0833 202.844 52.55C203.104 52.01 203.474 51.5933 203.954 51.3C204.441 51.0067 205.024 50.86 205.704 50.86C206.364 50.86 206.937 51.0067 207.424 51.3C207.911 51.5933 208.284 52.01 208.544 52.55C208.811 53.0833 208.944 53.72 208.944 54.46C208.944 55.2067 208.811 55.85 208.544 56.39C208.277 56.93 207.901 57.35 207.414 57.65C206.934 57.9433 206.364 58.09 205.704 58.09C205.024 58.09 204.444 57.9433 203.964 57.65C203.484 57.35 203.114 56.93 202.854 56.39C202.594 55.85 202.464 55.21 202.464 54.47ZM203.334 54.47C203.334 55.3767 203.534 56.0867 203.934 56.6C204.334 57.1067 204.924 57.36 205.704 57.36C206.451 57.36 207.031 57.1067 207.444 56.6C207.864 56.0867 208.074 55.3767 208.074 54.47C208.074 53.5567 207.867 52.85 207.454 52.35C207.041 51.8433 206.457 51.59 205.704 51.59C204.924 51.59 204.334 51.8433 203.934 52.35C203.534 52.85 203.334 53.5567 203.334 54.47ZM214.149 58V50.95H217.019C217.759 50.95 218.329 51.13 218.729 51.49C219.129 51.8433 219.329 52.3367 219.329 52.97C219.329 53.59 219.129 54.0833 218.729 54.45C218.329 54.81 217.759 54.99 217.019 54.99H214.979V58H214.149ZM214.979 54.3H216.939C217.452 54.3 217.839 54.1833 218.099 53.95C218.365 53.7167 218.499 53.39 218.499 52.97C218.499 52.5433 218.365 52.2133 218.099 51.98C217.839 51.7467 217.452 51.63 216.939 51.63H214.979V54.3ZM224.005 54.47C224.005 53.7233 224.131 53.0833 224.385 52.55C224.645 52.01 225.015 51.5933 225.495 51.3C225.981 51.0067 226.565 50.86 227.245 50.86C227.905 50.86 228.478 51.0067 228.965 51.3C229.451 51.5933 229.825 52.01 230.085 52.55C230.351 53.0833 230.485 53.72 230.485 54.46C230.485 55.2067 230.351 55.85 230.085 56.39C229.818 56.93 229.441 57.35 228.955 57.65C228.475 57.9433 227.905 58.09 227.245 58.09C226.565 58.09 225.985 57.9433 225.505 57.65C225.025 57.35 224.655 56.93 224.395 56.39C224.135 55.85 224.005 55.21 224.005 54.47ZM224.875 54.47C224.875 55.3767 225.075 56.0867 225.475 56.6C225.875 57.1067 226.465 57.36 227.245 57.36C227.991 57.36 228.571 57.1067 228.985 56.6C229.405 56.0867 229.615 55.3767 229.615 54.47C229.615 53.5567 229.408 52.85 228.995 52.35C228.581 51.8433 227.998 51.59 227.245 51.59C226.465 51.59 225.875 51.8433 225.475 52.35C225.075 52.85 224.875 53.5567 224.875 54.47ZM235.689 58V50.95H238.509C239.256 50.95 239.833 51.11 240.239 51.43C240.646 51.75 240.849 52.2033 240.849 52.79C240.849 53.23 240.716 53.5967 240.449 53.89C240.189 54.1833 239.826 54.3767 239.359 54.47V54.33C239.879 54.39 240.286 54.57 240.579 54.87C240.879 55.1633 241.029 55.56 241.029 56.06C241.029 56.6867 240.819 57.1667 240.399 57.5C239.986 57.8333 239.399 58 238.639 58H235.689ZM236.499 57.33H238.559C239.066 57.33 239.466 57.2333 239.759 57.04C240.059 56.84 240.209 56.51 240.209 56.05C240.209 55.5833 240.059 55.2533 239.759 55.06C239.466 54.86 239.066 54.76 238.559 54.76H236.499V57.33ZM236.499 54.1H238.389C238.936 54.1 239.346 53.9933 239.619 53.78C239.893 53.5667 240.029 53.26 240.029 52.86C240.029 52.4467 239.893 52.1367 239.619 51.93C239.346 51.7167 238.936 51.61 238.389 51.61H236.499V54.1ZM246.186 58V50.95H247.006V54.06H248.906C249.673 54.06 250.263 54.2233 250.676 54.55C251.096 54.8767 251.306 55.3667 251.306 56.02C251.306 56.6667 251.096 57.16 250.676 57.5C250.263 57.8333 249.673 58 248.906 58H246.186ZM247.006 57.33H248.836C249.396 57.33 249.81 57.2233 250.076 57.01C250.35 56.79 250.486 56.46 250.486 56.02C250.486 55.5867 250.35 55.2633 250.076 55.05C249.81 54.8367 249.396 54.73 248.836 54.73H247.006V57.33ZM252.336 58V50.95H253.166V58H252.336ZM258.627 58V50.95H259.347L262.177 57.34H261.887L264.717 50.95H265.437V58H264.677V52.02H264.977L262.307 58H261.757L259.077 52.02H259.377V58H258.627Z" fill="#003675"/>
</svg>
