<svg width="108" height="78" viewBox="0 0 108 78" fill="none" xmlns="http://www.w3.org/2000/svg">
<path fill-rule="evenodd" clip-rule="evenodd" d="M42.6783 48.2168L39.4554 59.4442H21.6323L28.7779 34.5455H17.9633L21.8713 20.93L95.228 20.9129L94.6624 22.88L24.915 22.8986L22.571 31.0678H33.3841L26.2385 55.9665H36.8432L39.0676 48.2168H42.6783ZM99.62 24.8629C105.911 26.5466 104.9 33.6377 102.085 38.4784C96.1142 48.7451 77.9456 58.913 55.5249 63.4887C26.8288 69.3471 2.01468 63.8294 0.115316 51.1689C-0.320532 48.2641 0.4914 45.2345 2.34266 42.2194C-4.82916 58.2816 17.2607 63.7321 34.836 62.8588C55.2406 61.8436 71.8044 57.8577 88.7747 47.8216C93.5779 44.9782 98.0093 41.2344 100.569 37.101C103.134 32.9592 104.77 27.6003 99.62 24.8629ZM31.7908 20.27C37.8344 17.8419 44.5718 15.8046 51.7452 14.3399C80.4427 8.48285 105.257 14.0006 107.156 26.6596C107.592 29.5675 106.782 32.5955 104.929 35.6107C112.099 19.5484 90.0123 14.0965 72.4356 14.9713C60.6851 15.5554 50.2073 17.126 40.193 20.27H31.7908ZM7.65156 52.9657C2.50156 50.2298 4.13853 44.8694 6.70406 40.7276C9.26231 36.5957 13.6952 32.8503 18.4968 30.0085L18.5901 29.9541L19.6629 26.213C12.8963 30.2532 7.83814 34.7917 5.18661 39.3503C2.37328 44.1908 1.36018 51.282 7.65156 52.9657ZM91.1304 30.3692L90.4511 38.4926H92.5284L93.416 24.8786H92.3359L86.8302 34.2735L86.2428 24.8786H85.1611L78.7896 38.4926H80.8916L84.6509 30.3448L85.3083 38.676H85.9935L91.1304 30.3692ZM74.039 32.7673C73.4559 32.763 72.8597 32.7244 72.2796 32.6857L70.682 38.4926H68.5057L72.2461 24.8786H72.3554C72.8321 24.8786 73.351 24.8357 73.8277 24.8114C74.4924 24.777 75.1688 24.7426 75.8335 24.7426C78.6234 24.7426 80.7326 25.6647 79.8872 28.7428C79.6366 29.6534 79.119 30.4236 78.4252 31.0707C77.8144 31.642 77.0972 32.1101 76.2751 32.3192L78.6015 38.4926H76.141L74.039 32.7673ZM65.0363 35.6822H60.1254L58.3368 38.4926H55.8835L65.3847 24.6968H66.0873L67.5946 38.4926H65.2142L65.0363 35.6822ZM54.5483 32.0514L52.7772 38.4926H54.9549L58.694 24.8786H56.5177L55.0497 30.2231H49.3282L50.7948 24.8786H48.6183L44.878 38.4926H47.0557L48.8254 32.0514H54.5483ZM37.7236 33.3715L36.3155 38.4926H34.1392L37.8767 24.8844L37.9816 24.8801C38.8402 24.8428 39.7323 24.7899 40.5894 24.7899C42.1462 24.7899 44.652 24.966 45.5179 26.4835C45.9333 27.2138 45.8736 28.0742 45.6593 28.853C44.7614 32.1231 42.3285 33.4517 38.9845 33.4517C38.5779 33.4517 38.1347 33.4072 37.7236 33.3715ZM73.8991 26.7857L72.7752 30.8718C73.144 30.9161 73.5157 30.939 73.8874 30.939C74.7095 30.939 75.6993 30.8488 76.4209 30.4308C77.0943 30.0442 77.4499 29.3499 77.6467 28.634C77.794 28.1028 77.8144 27.5231 77.3159 27.1708C76.7329 26.7599 75.6089 26.7083 74.9195 26.7083C74.5958 26.7083 74.2299 26.7514 73.8991 26.7857ZM64.5437 28.7786L61.172 34.0616H64.8512L64.5437 28.7786ZM39.5326 26.7842L38.2485 31.4545C38.5924 31.4873 38.9758 31.5304 39.3023 31.5332C41.2323 31.5332 42.859 30.9204 43.3955 28.9691C43.9392 26.9904 42.0267 26.7083 40.47 26.7083C40.1638 26.7083 39.8402 26.7441 39.5326 26.7842ZM35.5255 41.0612H36.1041C36.5297 41.0612 36.8126 41.084 36.9511 41.1298C37.1916 41.2043 37.3592 41.3231 37.4481 41.482C37.5429 41.6439 37.5648 41.9087 37.524 42.278H37.6799L38.1814 40.7676H33.4789L33.4322 40.9079H33.6188C33.801 40.9079 33.9336 40.9409 34.0167 41.0125C34.0736 41.0597 34.1028 41.1284 34.1012 41.2158C34.097 41.2687 34.0575 41.409 33.9818 41.641L32.868 44.9997C32.7806 45.2574 32.7136 45.4149 32.6626 45.4736C32.5955 45.561 32.5197 45.6211 32.4367 45.6555C32.32 45.7084 32.1801 45.7356 32.0182 45.7356H31.8316L31.785 45.8745H36.6406L37.4307 44.251H37.2791C36.9904 44.7034 36.6522 45.0398 36.263 45.2603C35.8723 45.4807 35.4161 45.5924 34.8899 45.5924H34.5561C34.3942 45.5924 34.285 45.5725 34.2281 45.5309C34.1683 45.4908 34.1363 45.4393 34.1319 45.3763C34.1261 45.3147 34.1698 45.1429 34.2631 44.8608L34.7412 43.4234C35.0079 43.4234 35.2018 43.455 35.3214 43.5179C35.4423 43.5824 35.524 43.707 35.5692 43.893C35.6129 44.0791 35.6027 44.3168 35.5415 44.6088H35.696L36.5853 41.9359H36.4278C36.2513 42.3311 36.0488 42.6317 35.8228 42.8351C35.5939 43.0384 35.3024 43.14 34.9453 43.14H34.8345L35.5255 41.0612ZM44.9524 40.6517H44.7891C44.7278 40.7791 44.6535 40.8722 44.5703 40.9322C44.4844 40.991 44.3998 41.0196 44.3124 41.0196C44.2409 41.0196 44.0967 40.9738 43.8707 40.8836C43.4844 40.7289 43.0909 40.6517 42.6987 40.6517C42.1623 40.6517 41.6157 40.7705 41.0588 41.0125C40.502 41.253 40.0122 41.5937 39.5865 42.0289C39.1594 42.4656 38.8679 42.928 38.7047 43.4148C38.5516 43.8773 38.5341 44.3125 38.6507 44.7234C38.7689 45.1314 39.0239 45.4435 39.416 45.6641C39.8082 45.8816 40.3067 45.9904 40.9044 45.9904C41.362 45.9904 41.7804 45.9247 42.1667 45.79C42.553 45.6555 42.9508 45.4393 43.3678 45.14L43.5121 44.6991C43.0734 45.0441 42.6827 45.2846 42.343 45.4264C42.0005 45.5667 41.655 45.6354 41.3008 45.6354C40.8708 45.6354 40.5501 45.5409 40.3431 45.3477C40.1361 45.1572 40.0326 44.8723 40.0297 44.4972C40.0268 44.1221 40.1012 43.7055 40.2527 43.2488C40.4058 42.7849 40.6346 42.3625 40.9349 41.9846C41.1667 41.6868 41.4612 41.4477 41.814 41.2645C42.1681 41.0798 42.5209 40.9895 42.8707 40.9895C43.2905 40.9895 43.6258 41.1127 43.8751 41.3575C44.1273 41.6052 44.2352 41.9588 44.203 42.4198H44.3634L44.9524 40.6517ZM47.098 43.4192L46.5732 44.9997C46.4858 45.2617 46.4479 45.4249 46.4567 45.4893C46.4683 45.5552 46.5121 45.6125 46.5878 45.6597C46.6637 45.7112 46.7802 45.7356 46.9362 45.7356H47.1243L47.0776 45.8745H44.1404L44.1856 45.7356H44.3736C44.5354 45.7356 44.6768 45.7084 44.792 45.6555C44.8765 45.6211 44.9524 45.561 45.0179 45.4736C45.0689 45.4149 45.1375 45.2574 45.222 44.9997L46.3372 41.641C46.4232 41.3804 46.461 41.2158 46.4523 41.1513C46.445 41.0869 46.4013 41.0282 46.3255 40.9809C46.2496 40.9322 46.1316 40.9079 45.9756 40.9079H45.789L45.8357 40.7676H48.7729L48.7248 40.9079H48.5397C48.3765 40.9079 48.2364 40.9337 48.1199 40.9853C48.0354 41.0225 47.9595 41.0798 47.8896 41.1671C47.8385 41.2272 47.7729 41.3862 47.6884 41.641L47.2073 43.087H49.1927L49.6723 41.641C49.7584 41.3804 49.7962 41.2158 49.7889 41.1513C49.7802 41.0869 49.7364 41.0282 49.6592 40.9809C49.5804 40.9322 49.4639 40.9079 49.305 40.9079H49.1242L49.1694 40.7676H52.1052L52.0585 40.9079H51.8763C51.7101 40.9079 51.5716 40.9337 51.4551 40.9853C51.3735 41.0225 51.2962 41.0798 51.2248 41.1671C51.1767 41.2272 51.1067 41.3862 51.0221 41.641L49.9084 44.9997C49.821 45.2617 49.7831 45.4249 49.7919 45.4893C49.8006 45.5552 49.8429 45.6125 49.9201 45.6597C49.9973 45.7112 50.1154 45.7356 50.2729 45.7356H50.4551L50.4099 45.8745H47.4742L47.5208 45.7356H47.703C47.8691 45.7356 48.0091 45.7084 48.1243 45.6555C48.2059 45.6211 48.2832 45.561 48.356 45.4736C48.4041 45.4149 48.4727 45.2574 48.5557 44.9997L49.082 43.4192H47.098ZM54.6503 40.7676H52.6577L52.6109 40.9079C52.7801 40.9123 52.9054 40.9351 52.9798 40.9767C53.0585 41.0225 53.1329 41.1098 53.2072 41.2444L53.2815 41.3818L52.0863 44.9854C51.9958 45.2574 51.8719 45.4479 51.7117 45.5623C51.5542 45.6755 51.3195 45.7327 51.009 45.7356L50.9638 45.8745H52.955L53.0002 45.7356H52.8675C52.678 45.7356 52.5264 45.684 52.4142 45.5809C52.299 45.4765 52.2917 45.2775 52.388 44.9854L53.4651 41.7397L55.8543 45.9904H55.9957L57.4068 41.7397C57.4855 41.4992 57.5656 41.3274 57.643 41.2287C57.7202 41.1298 57.8091 41.0583 57.9053 41.0139C58.0015 40.9709 58.1736 40.9337 58.4198 40.9079L58.465 40.7676H56.6095L56.5642 40.9079C56.8777 40.9022 57.0759 40.9723 57.1619 41.1185C57.2217 41.2258 57.2012 41.432 57.1007 41.7397L56.3719 43.9346L54.6503 40.7676ZM62.2448 40.6961C63.1501 40.666 63.7987 40.9037 64.1923 41.4076C64.5815 41.913 64.6529 42.5444 64.4008 43.3017C64.1865 43.9503 63.7886 44.5187 63.2084 45.0126C62.4402 45.6654 61.5496 45.9904 60.5408 45.9904C59.5336 45.9904 58.8528 45.6798 58.5059 45.057C58.2347 44.5645 58.2085 43.9804 58.4344 43.3061C58.6852 42.5472 59.1778 41.9158 59.9125 41.409C60.6487 40.9037 61.4256 40.666 62.2448 40.6961ZM62.2157 40.9366C61.7027 40.9366 61.2317 41.1756 60.8046 41.6539C60.4563 42.0433 60.1604 42.6074 59.9184 43.3389C59.6283 44.2108 59.5846 44.8537 59.7814 45.2718C59.9199 45.5623 60.2012 45.7084 60.6254 45.7084C60.9081 45.7084 61.1677 45.6455 61.3994 45.5209C61.6939 45.359 61.9694 45.1028 62.2216 44.7492C62.4751 44.397 62.6939 43.9374 62.8834 43.3705C63.1093 42.6933 63.2055 42.1893 63.1777 41.8543C63.1515 41.5193 63.0553 41.2831 62.8848 41.1428C62.7186 41.0053 62.4956 40.9366 62.2157 40.9366ZM70.0828 44.0806H69.9138C69.6484 44.4829 69.4109 44.7864 69.1966 44.9926C68.9837 45.2002 68.7622 45.3491 68.5319 45.4435C68.3001 45.5395 68.0362 45.5867 67.7389 45.5867H67.2696C67.0042 45.5867 66.8425 45.5767 66.7797 45.5539C66.6951 45.5194 66.6486 45.465 66.6384 45.392C66.6296 45.3233 66.6675 45.1544 66.7549 44.8938L67.8337 41.641C67.9182 41.3862 67.9867 41.2272 68.0362 41.1671C68.1062 41.0798 68.1835 41.0225 68.2665 40.9853C68.3846 40.9337 68.5231 40.9079 68.6879 40.9079H68.9328L68.978 40.7676H65.981L65.9358 40.9079H66.1224C66.2782 40.9079 66.3964 40.9322 66.4721 40.9809C66.5493 41.0282 66.5902 41.0869 66.6005 41.1513C66.6091 41.2158 66.5698 41.3804 66.4838 41.641L65.3686 44.9997C65.2841 45.2574 65.2157 45.4149 65.1661 45.4736C65.0975 45.561 65.0232 45.6211 64.9386 45.6555C64.8221 45.7084 64.6821 45.7356 64.5188 45.7356H64.3322L64.2871 45.8745H69.2767L70.0828 44.0806ZM75.0653 40.6961C75.9705 40.666 76.6177 40.9037 77.0113 41.4076C77.4018 41.913 77.4719 42.5444 77.2196 43.3017C77.0054 43.9503 76.6089 44.5187 76.0287 45.0126C75.259 45.6654 74.3699 45.9904 73.3611 45.9904C72.351 45.9904 71.6732 45.6798 71.3248 45.057C71.0551 44.5645 71.0288 43.9804 71.2534 43.3061C71.5027 42.5472 71.9982 41.9158 72.733 41.409C73.4705 40.9037 74.246 40.666 75.0653 40.6961ZM75.0346 40.9366C74.5215 40.9366 74.0507 41.1756 73.6236 41.6539C73.2766 42.0433 72.9808 42.6074 72.7372 43.3389C72.4487 44.2108 72.405 44.8537 72.6017 45.2718C72.7388 45.5623 73.0201 45.7084 73.4428 45.7084C73.7285 45.7084 73.988 45.6455 74.2197 45.5209C74.5142 45.359 74.7882 45.1028 75.0404 44.7492C75.2941 44.397 75.5142 43.9374 75.7022 43.3705C75.9281 42.6933 76.0258 42.1893 75.9981 41.8543C75.9718 41.5193 75.8728 41.2831 75.7051 41.1428C75.5375 41.0053 75.3159 40.9366 75.0346 40.9366ZM84.5373 40.6517H84.3828C84.2807 40.7948 84.1889 40.8922 84.1044 40.9424C84.0197 40.9953 83.9425 41.0196 83.8638 41.0196C83.8143 41.0196 83.6685 40.9723 83.428 40.8793C83.1875 40.7848 83.0097 40.7276 82.8959 40.7061C82.6845 40.666 82.4382 40.6474 82.1597 40.6474C81.2603 40.6474 80.4251 40.9123 79.654 41.442C78.8858 41.9716 78.3727 42.6203 78.1177 43.3877C77.9762 43.8172 77.9441 44.2066 78.0215 44.5517C78.0855 44.8207 78.2152 45.0627 78.412 45.2775C78.6088 45.4922 78.864 45.6654 79.173 45.7957C79.4806 45.9275 79.9018 45.9948 80.4354 45.9948C80.8522 45.9948 81.2691 45.9575 81.6802 45.8831C82.0927 45.8101 82.5023 45.6984 82.912 45.5539L83.2632 44.4915C83.3259 44.3054 83.374 44.1893 83.4163 44.1407C83.4892 44.0519 83.5752 43.986 83.6685 43.9475C83.7647 43.9088 83.9163 43.8831 84.1276 43.8701L84.1728 43.7313H81.4441L81.3975 43.8701H81.5431C81.6773 43.8701 81.7851 43.893 81.8654 43.9417C81.944 43.9889 81.9892 44.0433 81.9994 44.1035C82.0111 44.1608 81.9834 44.2924 81.9177 44.4915L81.565 45.5539C81.3975 45.6039 81.2385 45.6426 81.0884 45.6683C80.9368 45.6955 80.7939 45.7084 80.6598 45.7084C80.2706 45.7084 79.9616 45.6225 79.7372 45.4479C79.5111 45.2747 79.3946 45.0041 79.3917 44.6347C79.3873 44.2652 79.466 43.8358 79.6278 43.3475C79.7604 42.9438 79.9499 42.5486 80.1934 42.1636C80.4368 41.7798 80.7341 41.4806 81.0855 41.2673C81.4339 41.0539 81.8202 40.9437 82.24 40.9437C82.6788 40.9437 83.0417 41.0726 83.3259 41.3289C83.6102 41.5851 83.7647 41.9588 83.7865 42.4513H83.9411L84.5373 40.6517ZM91.5575 40.7676H89.8418L89.7951 40.9079C90.0415 40.9209 90.2047 40.9566 90.2747 41.0196C90.3316 41.0654 90.349 41.1213 90.3272 41.1886C90.2864 41.3117 90.0794 41.5623 89.7019 41.9373L88.18 43.4793L87.7253 41.7884C87.6261 41.4247 87.5911 41.1957 87.6203 41.107C87.6377 41.0583 87.6829 41.0139 87.7617 40.9709C87.8404 40.928 87.9629 40.9079 88.1261 40.9079H88.247L88.2923 40.7676H85.5984L85.5518 40.9079C85.7312 40.9094 85.8623 40.9481 85.9439 41.0253C86.027 41.1026 86.1261 41.3561 86.2472 41.7884L86.8419 43.9747L86.5007 44.9997C86.4177 45.2574 86.3506 45.4149 86.2982 45.4736C86.2282 45.561 86.151 45.6211 86.0693 45.6555C85.9542 45.7084 85.8142 45.7356 85.6495 45.7356H85.3535L85.3083 45.8745H88.4614L88.508 45.7356H88.1946C88.043 45.7356 87.9322 45.7112 87.8579 45.6597C87.785 45.6125 87.7442 45.5552 87.7354 45.4922C87.7253 45.4278 87.7675 45.2632 87.8535 44.9997L88.2631 43.7641L90.094 41.9158C90.5488 41.4477 90.8622 41.1585 91.0356 41.0539C91.1595 40.9767 91.3184 40.9294 91.5108 40.9079L91.5575 40.7676Z" fill="#1D446F"/>
</svg>
