<svg width="36" height="36" viewBox="0 0 36 36" fill="none" xmlns="http://www.w3.org/2000/svg">
<g clip-path="url(#clip0_408_4820)">
<path d="M21.367 8.04278C31.3227 -1.46126 37.2078 11.2105 30.4177 17.9993L20.0085 28.4085C18.1099 28.4085 16.53 25.2229 17.4068 22.3261C17.6343 21.5747 17.1845 20.6179 16.4184 20.446C14.4743 20.0097 11.8631 18.9031 13.6725 16.1891L21.367 8.04278Z" fill="#0075FF" fill-opacity="0.28"/>
<path d="M25.192 1.25394C22.573 1.26049 20.0573 2.27433 18.1683 4.08451C16.243 2.26872 13.6842 1.27356 11.0353 1.31044C8.38647 1.34733 5.85642 2.41331 3.98274 4.28199C2.10905 6.15068 1.0394 8.67475 1.00107 11.3179C0.96273 13.961 1.95872 16.5149 3.77743 18.4369L3.27516 18.9381C2.81727 19.3951 2.52735 19.9929 2.45234 20.6347C2.37733 21.2766 2.52163 21.9249 2.86187 22.4747C3.20211 23.0245 3.71838 23.4437 4.32707 23.6643C4.93577 23.8849 5.60126 23.8939 6.21579 23.6901C6.04692 24.1957 6.02247 24.7381 6.14518 25.2568C6.26788 25.7754 6.53288 26.2497 6.9105 26.6265C7.28812 27.0033 7.76343 27.2678 8.28317 27.3902C8.80292 27.5127 9.34657 27.4883 9.85321 27.3198C9.68471 27.8253 9.66055 28.3675 9.78342 28.8859C9.9063 29.4043 10.1714 29.8783 10.5489 30.2549C10.9265 30.6315 11.4016 30.8958 11.9212 31.0182C12.4408 31.1406 12.9842 31.1163 13.4907 30.948C13.2877 31.5606 13.2976 32.2236 13.5188 32.83C13.7399 33.4363 14.1594 33.9506 14.7096 34.2897C15.2597 34.6289 15.9083 34.7731 16.5507 34.6992C17.193 34.6253 17.7917 34.3374 18.25 33.8822L18.3317 33.8034L18.8102 33.3245C19.2924 33.4547 19.8043 33.4222 20.2661 33.2322C20.728 33.0422 21.1141 32.7054 21.3643 32.2739C21.6146 31.8425 21.715 31.3406 21.65 30.8464C21.585 30.3521 21.3582 29.8931 21.0048 29.5407L18.5665 27.1076C18.2165 26.7592 17.762 26.5345 17.2722 26.4678C16.7824 26.401 16.2842 26.4959 15.8534 26.7379C15.4226 26.9798 15.0829 27.3556 14.886 27.8081C14.6891 28.2605 14.6458 28.7648 14.7626 29.2441L14.2752 29.7275C14.0742 29.9555 13.8293 30.1408 13.555 30.2724C13.2808 30.4039 12.9828 30.479 12.6788 30.4932C12.3748 30.5073 12.0711 30.4602 11.7858 30.3548C11.5004 30.2493 11.2392 30.0877 11.0178 29.8794C10.7964 29.6711 10.6193 29.4205 10.497 29.1424C10.3747 28.8644 10.3098 28.5646 10.3061 28.261C10.3024 27.9574 10.3599 27.6561 10.4754 27.3751C10.5908 27.0942 10.7618 26.8393 10.978 26.6257L15.0523 22.5616C15.1076 22.5042 15.1382 22.4275 15.1374 22.3479C15.1366 22.2683 15.1045 22.1922 15.0481 22.1359C14.9917 22.0796 14.9154 22.0476 14.8356 22.0469C14.7558 22.0461 14.6789 22.0766 14.6214 22.1318L10.5471 26.1959C10.1198 26.6095 9.54647 26.8388 8.9511 26.8342C8.35573 26.8296 7.78607 26.5916 7.36516 26.1714C6.94425 25.7512 6.70589 25.1827 6.70156 24.5886C6.69724 23.9945 6.92729 23.4225 7.34204 22.9963L11.4149 18.9322C11.468 18.8744 11.4967 18.7984 11.4949 18.72C11.4932 18.6417 11.4611 18.567 11.4055 18.5117C11.3498 18.4563 11.2749 18.4246 11.1964 18.4231C11.1178 18.4216 11.0417 18.4505 10.984 18.5037L6.91266 22.5677C6.48717 22.9907 5.91088 23.228 5.31028 23.2274C4.70968 23.2268 4.13384 22.9885 3.70914 22.5648C3.28445 22.141 3.0456 21.5664 3.04502 20.9671C3.04444 20.3677 3.28219 19.7927 3.70606 19.3681L13.5115 9.58082C13.6451 9.44716 13.8039 9.34115 13.9787 9.2688C14.1535 9.19645 14.3408 9.15921 14.5301 9.15921C14.7193 9.15921 14.9067 9.19645 15.0815 9.2688C15.2562 9.34115 15.415 9.44716 15.5487 9.58082L17.7983 11.8256C18.0636 12.0995 18.381 12.3181 18.7319 12.4683C19.0827 12.6186 19.4601 12.6977 19.8419 12.7009C20.2237 12.7042 20.6023 12.6315 20.9557 12.4872C21.3091 12.3429 21.6301 12.1298 21.9001 11.8604C22.1701 11.591 22.3836 11.2707 22.5282 10.9181C22.6728 10.5654 22.7456 10.1876 22.7424 9.80664C22.7391 9.42566 22.6599 9.04912 22.5093 8.69901C22.3587 8.34891 22.1397 8.03224 21.8652 7.76746L18.6007 4.51151C20.4513 2.77853 22.916 1.85007 25.4526 1.93043C27.9892 2.01079 30.39 3.09341 32.1267 4.94004C33.8634 6.78666 34.7938 9.24602 34.7133 11.7772C34.6328 14.3083 33.5479 16.7039 31.6973 18.4369L29.4759 16.2218C29.0506 15.7976 28.474 15.5592 27.8727 15.5593C27.2714 15.5593 26.6947 15.7977 26.2695 16.222C25.8443 16.6463 25.6054 17.2217 25.6054 17.8217C25.6054 18.4217 25.8442 18.9971 26.2694 19.4215L28.7077 21.8546C29.1142 22.2616 29.6608 22.4989 30.2364 22.5184C30.812 22.5379 31.3735 22.3381 31.8068 21.9595C32.2401 21.5809 32.5127 21.052 32.5694 20.48C32.6261 19.9081 32.4625 19.3362 32.1118 18.8803C33.6206 17.4941 34.6744 15.6854 35.1352 13.6913C35.5961 11.6972 35.4424 9.61067 34.6943 7.7052C33.9463 5.79973 32.6387 4.16422 30.9431 3.01305C29.2475 1.86187 27.2429 1.24869 25.192 1.25394ZM15.0123 29.8597C15.1089 30.0229 15.2257 30.1732 15.3599 30.3074L17.7997 32.7405C17.923 32.8641 18.0601 32.973 18.2084 33.0651L17.7701 33.5026C17.3398 33.9025 16.7707 34.12 16.1828 34.1092C15.5949 34.0983 15.0342 33.8599 14.6191 33.4444C14.204 33.0288 13.9669 32.4686 13.9579 31.8819C13.9489 31.2953 14.1687 30.728 14.5709 30.3L15.0123 29.8597Z" fill="#1783FE"/>
<path d="M24.6421 25.9123L22.2045 23.4792C21.7792 23.0557 21.2028 22.818 20.6019 22.8184C20.0011 22.8187 19.425 23.057 19.0001 23.4809C18.5752 23.9048 18.3363 24.4797 18.3359 25.0792C18.3355 25.6788 18.5737 26.254 18.998 26.6785L21.4356 29.1114C21.861 29.5344 22.4372 29.7717 23.0378 29.7712C23.6384 29.7707 24.2142 29.5324 24.6389 29.1087C25.0636 28.6849 25.3024 28.1104 25.303 27.5111C25.3036 26.9119 25.0659 26.3368 24.6421 25.9123Z" fill="#1783FE"/>
<path d="M22.6342 23.0501L25.0718 25.4832C25.497 25.9075 26.0737 26.1458 26.6749 26.1458C27.2762 26.1458 27.8529 25.9074 28.2781 25.4832C28.7032 25.059 28.9421 24.4836 28.9422 23.8836C28.9423 23.2836 28.7035 22.7082 28.2784 22.2839L25.8387 19.8509C25.4104 19.4426 24.8389 19.2179 24.2466 19.2248C23.6543 19.2316 23.0882 19.4696 22.6695 19.8877C22.2507 20.3057 22.0126 20.8707 22.006 21.4617C21.9994 22.0527 22.2249 22.6229 22.6342 23.0501Z" fill="#1783FE"/>
</g>
<defs>
<clipPath id="clip0_408_4820">
<rect width="36" height="36" fill="white"/>
</clipPath>
</defs>
</svg>
