<svg width="36" height="36" viewBox="0 0 36 36" fill="none" xmlns="http://www.w3.org/2000/svg">
<g clip-path="url(#clip0_408_4830)">
<path d="M32.8769 2.73363L32.7364 2.59398C29.2673 -0.86466 23.5909 -0.86466 20.1222 2.59398L2.60182 20.0635C-0.867273 23.5226 -0.867273 29.1822 2.60182 32.6412L2.74188 32.7813C6.21058 36.2395 11.8874 36.2395 15.3557 32.7813L32.8765 15.3113C36.3456 11.8523 36.3456 6.19227 32.8769 2.73363ZM31.3638 4.2419C31.5307 4.40829 31.6863 4.58146 31.8324 4.76022C31.6819 4.58066 31.5255 4.4035 31.3566 4.23472L31.3638 4.2419ZM31.2234 4.10265L31.2306 4.10983C31.0613 3.94105 30.8836 3.78583 30.7039 3.6354C30.8828 3.78064 31.0565 3.93586 31.2234 4.10265ZM13.8435 31.2722C11.1999 33.9081 6.89887 33.9081 4.25533 31.2722L4.11487 31.1325C1.47133 28.4967 1.47133 24.2081 4.11487 21.5718L12.875 12.837L12.877 12.839C15.1836 10.5391 17.1309 8.59712 18.6215 7.1112L20.8285 4.91065C23.5232 2.2233 27.6982 1.86219 30.7972 3.81775C27.7675 2.83299 24.2956 3.52727 21.8989 5.91735L19.4983 8.31103C18.0389 9.76663 16.1745 11.6256 13.9175 13.8761L22.604 22.5374L13.8435 31.2722Z" fill="#1783FE"/>
<path d="M14.3751 27.2216L12.3882 29.203C10.4046 31.1806 7.53132 31.7551 5.02344 30.9403C7.58854 32.5587 11.0436 32.2603 13.2746 30.0354L15.101 28.2147C16.3923 26.9267 18.0943 25.2297 20.1223 23.2075L19.262 22.3496C17.2711 24.3343 15.6412 25.9591 14.3751 27.2216Z" fill="#1783FE"/>
<path d="M30.9916 19.1582L19.0801 31.0348C20.5247 34.0003 23.5736 36.0448 27.1023 36.0448C32.0253 36.0448 36.0154 32.0655 36.0154 27.1568C36.0154 23.6387 33.9657 20.5986 30.9916 19.1582ZM20.8636 32.6628L32.6243 20.9366L32.7952 21.107L21.0345 32.8332L20.8636 32.6628ZM21.4087 33.2062L33.1693 21.4801L33.3402 21.6504L21.58 33.3766L21.4087 33.2062ZM27.1019 35.321C26.9187 35.321 26.737 35.3126 26.5569 35.301C31.2365 35.0122 34.9801 31.2798 35.2695 26.6134C35.2815 26.7933 35.2895 26.9737 35.2895 27.1564C35.2895 31.666 31.6239 35.321 27.1019 35.321Z" fill="#1783FE"/>
</g>
<defs>
<clipPath id="clip0_408_4830">
<rect width="36" height="36" fill="white"/>
</clipPath>
</defs>
</svg>
