<svg width="36" height="36" viewBox="0 0 36 36" fill="none" xmlns="http://www.w3.org/2000/svg">
<path d="M17.999 34.0145C18.3587 34.0145 18.6503 33.7587 18.6503 33.4433C18.6503 33.1278 18.3587 32.8721 17.999 32.8721C17.6393 32.8721 17.3477 33.1278 17.3477 33.4433C17.3477 33.7587 17.6393 34.0145 17.999 34.0145Z" fill="white"/>
<path d="M30.7262 35.6335C30.5053 34.9779 30.2545 34.3429 29.9808 33.7465C29.9801 33.7449 29.9793 33.7433 29.9785 33.7417L29.9784 33.7414L29.9783 33.7413C28.8115 31.1994 27.1464 29.1187 25.0289 27.5567C23.2523 26.2461 21.5024 25.5599 20.2788 25.207V23.6189C22.3311 22.9629 24.0132 21.5576 24.7906 20.4213C24.9776 20.1482 25.1549 19.8135 25.3193 19.4251C26.2676 19.4085 27.1893 18.7773 27.578 17.8441C28.0764 16.6468 27.5506 15.3447 26.4051 14.9411C26.4048 14.9411 26.4046 14.9409 26.4042 14.9408C26.9253 13.3557 26.968 11.6032 26.5234 9.96285L28.0115 5.88855C28.012 5.88733 28.0124 5.88612 28.0129 5.88483L28.6797 4.05895C28.7117 3.97142 28.6936 3.87581 28.6313 3.80199C28.598 3.76258 27.797 2.82589 26.079 1.88636C24.5055 1.02586 21.8263 0 17.9992 0C14.1721 0 11.493 1.02586 9.91946 1.88643C8.2015 2.82597 7.40048 3.76258 7.36726 3.80199C7.3049 3.87581 7.28691 3.97149 7.31882 4.05895L7.98583 5.88512C7.98608 5.88591 7.9864 5.88662 7.98665 5.8874L9.47511 9.96278C9.03044 11.6032 9.07318 13.3557 9.5943 14.9408C9.59373 14.9411 9.59316 14.9412 9.59251 14.9414C8.44777 15.3446 7.92193 16.6468 8.42049 17.8441C8.66595 18.433 9.12748 18.9146 9.68963 19.186C9.43856 19.6389 9.30512 20.1373 9.30512 20.6463C9.30512 22.4884 11.014 23.9871 13.1144 23.9871C13.8668 23.9871 14.5867 23.797 15.2088 23.4367C15.3769 23.5025 15.5477 23.5636 15.7204 23.6189V25.2069C14.4967 25.5597 12.7467 26.2459 10.9699 27.5566C8.85133 29.1195 7.18531 31.2021 6.01818 33.7467C5.74219 34.3499 5.49152 34.9847 5.27309 35.6334C5.24403 35.7198 5.26308 35.8132 5.32455 35.8853C5.38601 35.9574 5.48281 36 5.58555 36H30.4139C30.5166 36 30.6133 35.9575 30.6747 35.8854C30.7362 35.8133 30.7552 35.7199 30.7262 35.6335ZM29.2512 33.6924C28.3048 33.9918 27.207 34.1012 25.9777 34.017V31.9845C25.9777 31.8268 25.8319 31.6989 25.6521 31.6989C25.4722 31.6989 25.3264 31.8268 25.3264 31.9845V35.4288H20.2789V31.2713C20.2789 31.2206 20.2635 31.1708 20.2343 31.127L19.9584 30.7136L21.5745 29.5754C21.6447 29.5259 21.6884 29.4532 21.6953 29.3744C21.7021 29.2957 21.6714 29.2179 21.6105 29.1596L20.782 28.368L22.5241 27.4622C22.6145 27.4152 22.6735 27.3328 22.6825 27.241C22.6914 27.1492 22.6494 27.0592 22.5695 26.9993L21.6352 26.2998C24.053 27.3128 27.1968 29.4034 29.2512 33.6924ZM17.9992 23.9871C18.5342 23.9871 19.0801 23.9226 19.6275 23.7969V25.3652L18.3813 28.35L16.3719 25.3384V23.797C16.919 23.9226 17.4647 23.9871 17.9992 23.9871ZM19.8514 23.1446C19.2274 23.3246 18.6043 23.416 17.9992 23.416C17.3947 23.416 16.7719 23.3247 16.1485 23.1448C15.8657 23.0628 15.5856 22.9642 15.3152 22.8515C13.5781 22.1305 12.3179 20.9335 11.7664 20.1275C11.5712 19.8422 11.385 19.4757 11.2129 19.0381C10.8119 18.0202 10.4989 16.6387 10.3301 15.1447C10.3803 14.9109 10.6845 13.6019 11.3526 12.8537C11.6706 12.4979 12.0901 12.2135 12.5757 11.8841C13.1556 11.4909 13.8129 11.0453 14.4055 10.3827C14.9413 9.78357 15.2708 8.92342 15.4618 8.24949C15.733 8.71373 16.0963 9.09671 16.5485 9.39394C17.7368 10.1756 19.1664 10.57 20.5489 10.9514C21.8168 11.3011 23.0144 11.6314 23.8319 12.2245C25.3606 13.3324 25.6385 14.9187 25.6697 15.1353C25.5012 16.6329 25.1876 18.0181 24.7858 19.0382C24.6137 19.4757 24.4275 19.8422 24.2323 20.1275C23.5129 21.1789 21.8351 22.5715 19.8514 23.1446ZM10.1287 10.0185C10.8221 7.5515 12.606 5.62401 14.9534 4.76916C14.9187 5.00356 14.886 5.30679 14.878 5.65029C14.8744 5.80794 15.0171 5.93845 15.1969 5.94167C15.1992 5.94167 15.2015 5.94174 15.2038 5.94174C15.3805 5.94174 15.5255 5.81772 15.5292 5.662C15.5407 5.17077 15.6076 4.76473 15.6498 4.55246C16.3892 4.35747 17.1781 4.25744 17.9993 4.25744C22.6081 4.25744 25.087 7.23341 25.87 10.0185C26.2341 11.3115 26.275 12.6815 25.9983 13.9725C25.717 13.3104 25.1978 12.4732 24.2469 11.7842C23.3313 11.12 22.0746 10.7734 20.7443 10.4064C19.414 10.0395 18.0385 9.65998 16.9393 8.93692C16.3186 8.52895 15.8964 7.9147 15.6846 7.11118C15.6489 6.97616 15.5069 6.88328 15.3503 6.89041C15.1925 6.89763 15.0635 7.00323 15.0441 7.14067C15.0414 7.15966 14.7663 9.05373 13.8931 10.0302C13.3506 10.6369 12.7542 11.0412 12.1775 11.4322C11.6789 11.7702 11.2081 12.0895 10.84 12.5015C10.4594 12.9277 10.1871 13.4904 10.0024 13.982C9.72342 12.6882 9.76364 11.3148 10.1287 10.0185ZM26.9663 17.6481C26.7039 18.278 26.144 18.7292 25.5455 18.8329C25.8657 17.905 26.1203 16.7545 26.2782 15.5196C27.0173 15.8567 27.327 16.7815 26.9663 17.6481ZM10.293 2.3553C11.7907 1.54143 14.3434 0.571191 17.9992 0.571191C21.655 0.571191 24.2078 1.54143 25.7055 2.3553C26.9959 3.05658 27.7475 3.76565 28.0057 4.03189L27.5614 5.24817C27.1572 4.89096 26.4424 4.32584 25.4176 3.75829C23.8962 2.91571 21.3743 1.91135 17.9992 1.91135C14.6247 1.91135 12.1026 2.91571 10.5812 3.75829C9.55628 4.32591 8.84132 4.8911 8.43702 5.24824L7.99275 4.03196C8.25132 3.76536 9.00292 3.05644 10.293 2.3553ZM9.03239 17.6482C8.67141 16.7813 8.98143 15.8561 9.72041 15.5196C9.87818 16.7537 10.1326 17.9037 10.4525 18.8311C10.3849 18.8192 10.3172 18.8044 10.2494 18.7833C9.71495 18.6187 9.26002 18.1943 9.03239 17.6482ZM9.9565 20.6464C9.9565 20.2061 10.0757 19.7751 10.3015 19.3871C10.4274 19.4106 10.5536 19.4239 10.6796 19.4258C10.8439 19.8139 11.0211 20.1484 11.2079 20.4213C11.7488 21.2119 12.9152 22.3461 14.5142 23.1297C14.0822 23.3176 13.6068 23.416 13.1145 23.416C11.3732 23.416 9.9565 22.1735 9.9565 20.6464ZM14.8539 26.1047L13.3999 27.4514C13.3279 27.5182 13.2968 27.6111 13.3166 27.7014C13.3363 27.7916 13.4042 27.868 13.4991 27.9068L15.5905 28.7594L14.9511 29.7609C14.9036 29.8353 14.8964 29.9243 14.9316 30.0037C14.9669 30.0832 15.0406 30.1447 15.1329 30.1715L19.6275 31.4775V35.4288H10.6721V31.9845C10.6721 31.8268 10.5263 31.6989 10.3465 31.6989C10.1666 31.6989 10.0208 31.8268 10.0208 31.9845V34.017C8.7923 34.1011 7.69446 33.9918 6.74804 33.6925C8.94455 29.1069 12.3858 27.0341 14.8539 26.1047Z" fill="white"/>
<path d="M21.0088 32.6743V34.2115C21.0088 34.3692 21.1546 34.4971 21.3344 34.4971H24.2709C24.4507 34.4971 24.5965 34.3692 24.5965 34.2115V32.6743C24.5965 32.5165 24.4507 32.3887 24.2709 32.3887H21.3344C21.1546 32.3887 21.0088 32.5165 21.0088 32.6743Z" fill="white"/>
</svg>
