<svg width="36" height="36" viewBox="0 0 36 36" fill="none" xmlns="http://www.w3.org/2000/svg">
<path d="M16.4992 5.49968C16.4992 5.49968 26.5009 14.4997 29.4993 18.9997C29.4993 18.9997 22.5 26.4998 21 26.9997C19.4902 26.472 11.002 18.4996 8.50089 14.4996C14.0011 10.9996 15.0009 7.99968 16.4992 5.49968Z" fill="#0075FF" fill-opacity="0.28"/>
<path d="M31.4219 17.0056L18.3896 3.97327C17.9721 3.55576 17.4352 3.29332 16.8328 3.22771L12.1865 3.0786H12.1806C12.0016 2.78038 11.7869 2.49408 11.5543 2.21972C11.4469 2.10043 11.3336 1.98114 11.2203 1.86185C10.2302 0.87175 8.99554 0.227588 7.75493 0.0486544C6.44872 -0.136244 5.28565 0.209695 4.46852 1.02086C3.65735 1.83203 3.31738 3.00106 3.50227 4.30131C3.64542 5.29738 4.08679 6.28748 4.7727 7.14636C4.93374 7.36108 5.11864 7.56984 5.31547 7.76666C5.42283 7.87402 5.53019 7.97542 5.63755 8.06489L5.66141 8.8522L5.70316 10.0451L5.84034 14.2739C5.89999 14.8286 6.16242 15.3654 6.57994 15.7829L19.6123 28.8152C19.8628 29.0657 20.1491 29.2566 20.4533 29.3819C20.7575 29.5012 21.0795 29.5668 21.3957 29.5668C21.5388 29.5668 21.6819 29.5548 21.8191 29.531C21.8907 29.519 21.9563 29.5071 22.0279 29.4833C22.1591 29.4415 22.2903 29.3878 22.4215 29.3282C22.6064 29.2328 22.7854 29.1015 22.9404 28.9465L28.0878 23.7991L28.9347 22.9522L31.5531 20.3338C32.4359 19.451 32.3762 17.9599 31.4219 17.0056ZM11.9181 7.65334C11.9658 7.68316 12.0136 7.72491 12.0613 7.76666C12.2879 7.99331 12.4132 8.29154 12.4132 8.61362C12.4132 8.92973 12.2879 9.22796 12.0613 9.45461C11.6139 9.90791 10.8266 9.90791 10.3733 9.45461C10.1526 9.22796 10.0274 8.92973 10.0274 8.61362C10.0274 8.29154 10.1526 7.99331 10.3733 7.76666C10.6 7.54598 10.8982 7.42073 11.2203 7.42073C11.4589 7.42073 11.6855 7.4923 11.8764 7.61755C11.8883 7.62948 11.9002 7.64141 11.9181 7.65334ZM6.15646 3.55576C5.69123 4.01502 5.47055 4.67707 5.54808 5.3272L5.57791 6.25169C5.17829 5.70296 4.89796 5.10652 4.75481 4.50411C4.75481 4.49814 4.74885 4.49218 4.75481 4.48621C4.72499 4.36692 4.70113 4.2536 4.68324 4.13431C4.55202 3.20982 4.7727 2.40462 5.31547 1.86185C5.85227 1.32505 6.65747 1.0984 7.58793 1.23558C8.33349 1.33698 9.07904 1.66502 9.74706 2.16007C9.96775 2.32708 10.1765 2.51198 10.3733 2.7088C10.4807 2.8102 10.5821 2.91756 10.6716 3.03088L7.97562 2.94142C7.2897 2.86388 6.62169 3.08456 6.15646 3.55576ZM30.7062 19.4868L27.6703 22.5287L22.0935 28.0995C21.6819 28.517 20.9424 28.4574 20.4533 27.9683L7.42092 14.9359C7.20024 14.7153 7.05709 14.429 7.02727 14.1904L6.87816 9.44864C6.87816 9.43075 6.87816 9.41882 6.87225 9.40093L6.81857 7.79052C6.81857 7.79052 6.81857 7.78456 6.81857 7.77859L6.73507 5.23773C6.69928 4.90372 6.78875 4.6055 7.00347 4.39674C7.1824 4.21781 7.42098 4.12238 7.72517 4.12238C7.77885 4.12238 7.8385 4.12238 7.89218 4.12834L11.4649 4.24763C11.6021 4.52796 11.7035 4.81426 11.7691 5.09459C11.8764 5.52403 11.9122 5.9475 11.8645 6.33519C11.0593 6.12047 10.1408 6.3173 9.5324 6.92568C9.0791 7.37301 8.83456 7.97542 8.83456 8.61362C8.83456 9.25176 9.0791 9.8482 9.5324 10.3016C9.9857 10.7489 10.5821 10.9994 11.2203 10.9994C11.8585 10.9994 12.455 10.7489 12.9083 10.3016C13.3556 9.84826 13.6061 9.25181 13.6061 8.61362C13.6061 8.00524 13.3795 7.42663 12.962 6.98532C13.1111 6.40677 13.123 5.77454 12.9978 5.13037C12.95 4.85004 12.8725 4.56972 12.7711 4.28939L16.7494 4.4206C17.0357 4.45043 17.322 4.59357 17.5486 4.81426L30.575 17.8466C31.064 18.3357 31.1237 19.0753 30.7062 19.4868Z" fill="#1783FE"/>
<path d="M23.531 29.5372C23.3163 29.7519 23.0658 29.9368 22.8033 30.068C22.6065 30.1634 22.4454 30.2291 22.2844 30.2768C22.177 30.3126 22.0697 30.3364 21.9504 30.3543C21.7774 30.3841 21.5866 30.402 21.3957 30.402C20.9782 30.402 20.5607 30.3185 20.1491 30.1575C19.7257 29.9845 19.3499 29.734 19.0219 29.406L5.98951 16.3736C5.44078 15.8249 5.08888 15.1092 5.01134 14.3636L5.00537 14.3039L4.86819 10.0692L4.82644 8.88226V8.8584C4.36718 8.92401 3.94967 9.13276 3.62162 9.46081C3.16236 9.92007 2.94167 10.5821 3.01325 11.2323L3.31147 20.1789C3.37111 20.7336 3.63355 21.2704 4.05106 21.6879L17.0834 34.7203C17.5844 35.2213 18.2345 35.4718 18.8668 35.4718C19.4334 35.4718 19.9941 35.269 20.4116 34.8515L29.0242 26.2388C29.6982 25.5648 29.8175 24.533 29.4119 23.6562L23.531 29.5372Z" fill="#1783FE"/>
</svg>
